<svg width="41" height="36" viewBox="0 0 41 36" fill="none" xmlns="http://www.w3.org/2000/svg">
<path d="M23.5109 16.0433C22.4051 16.0433 21.5054 16.921 21.5054 17.9999C21.5054 19.0788 22.4051 19.9566 23.5109 19.9566C24.6168 19.9566 25.5165 19.0788 25.5165 17.9999C25.5165 16.921 24.6168 16.0433 23.5109 16.0433Z" fill="#333333"/>
<path d="M24.8394 10.1123V13.6406C25.8693 13.9398 26.751 14.5773 27.3485 15.4209L30.7883 14.3305C29.6184 12.1311 27.4316 10.5262 24.8394 10.1123Z" fill="#333333"/>
<path d="M31.6112 16.7949L28.1703 17.8856C28.1713 17.9238 28.1734 17.9617 28.1734 17.9999C28.1734 19.0388 27.8138 19.9967 27.2108 20.7633L29.3353 23.616C30.799 22.1713 31.7042 20.1869 31.7042 17.9999C31.7042 17.5904 31.6724 17.188 31.6112 16.7949Z" fill="#333333"/>
<path d="M23.5109 0.937494H7.35029C6.6167 0.937494 6.02196 1.51773 6.02196 2.23343C6.02196 2.94913 6.6167 3.52937 7.35029 3.52937H14.2551C12.7983 4.41945 11.4848 5.51257 10.3569 6.76843H1.32834C0.59474 6.76851 0 7.34882 0 8.06452C0 8.78023 0.59474 9.36046 1.32834 9.36046H8.43527C6.90273 11.8961 6.02187 14.8494 6.02187 17.9999C6.02187 21.6658 7.21336 25.0654 9.23789 27.8497H5.46894C4.73534 27.8497 4.1406 28.4299 4.1406 29.1456C4.1406 29.8613 4.73534 30.4416 5.46894 30.4416H11.5564C12.3846 31.1995 13.2883 31.8797 14.2551 32.4704H1.46535C0.731754 32.4704 0.137014 33.0506 0.137014 33.7663C0.137014 34.482 0.731754 35.0623 1.46535 35.0623H23.5109C33.1545 35.0623 40.9999 27.408 40.9999 17.9998C40.9999 8.59163 33.1544 0.937494 23.5109 0.937494ZM29.9635 26.5046C29.939 26.5248 29.9148 26.5451 29.8884 26.5636C29.8588 26.5846 29.8285 26.6042 29.7978 26.6225C28.0229 27.8577 25.8524 28.5852 23.5109 28.5852C21.1695 28.5852 18.999 27.8577 17.2241 26.6225C17.1933 26.6042 17.1631 26.5846 17.1334 26.5636C17.1072 26.5449 17.0829 26.5246 17.0584 26.5046C14.3922 24.5741 12.6609 21.4807 12.6609 17.9999C12.6609 12.1631 17.5282 7.41452 23.5109 7.41452C29.4937 7.41452 34.361 12.1631 34.361 17.9999C34.361 21.4808 32.6298 24.5741 29.9635 26.5046Z" fill="#333333"/>
<path d="M16.2336 14.3304L19.6734 15.4208C20.271 14.5773 21.1526 13.9398 22.1825 13.6405V10.1122C19.5904 10.5262 17.4036 12.131 16.2336 14.3304Z" fill="#333333"/>
<path d="M25.0628 22.2886C24.577 22.4564 24.055 22.5486 23.5109 22.5486C22.967 22.5486 22.4449 22.4564 21.9591 22.2886L19.8342 25.1418C20.9405 25.6861 22.1896 25.9933 23.5109 25.9933C24.8323 25.9933 26.0814 25.6862 27.1877 25.1418L25.0628 22.2886Z" fill="#333333"/>
<path d="M18.8486 17.9999C18.8486 17.9617 18.8505 17.9238 18.8515 17.8856L15.4106 16.7949C15.3494 17.188 15.3176 17.5904 15.3176 17.9999C15.3176 20.187 16.2228 22.1713 17.6866 23.6161L19.8111 20.7633C19.2082 19.9967 18.8486 19.0388 18.8486 17.9999Z" fill="#333333"/>
</svg>
