<svg width="22" height="22" viewBox="0 0 22 22" fill="none" xmlns="http://www.w3.org/2000/svg">
<path d="M4.88892 9.90002H7.33336V12.1H4.88892V9.90002ZM4.88892 14.3H7.33336V16.5H4.88892V14.3ZM9.7778 9.90002H12.2222V12.1H9.7778V9.90002ZM9.7778 14.3H12.2222V16.5H9.7778V14.3ZM14.6667 9.90002H17.1111V12.1H14.6667V9.90002ZM14.6667 14.3H17.1111V16.5H14.6667V14.3Z" fill="#666666"/>
<path d="M2.44444 22H19.5556C20.9037 22 22 21.0133 22 19.8V4.4C22 3.1867 20.9037 2.2 19.5556 2.2H17.1111V0H14.6667V2.2H7.33333V0H4.88889V2.2H2.44444C1.09633 2.2 0 3.1867 0 4.4V19.8C0 21.0133 1.09633 22 2.44444 22ZM19.5556 6.6L19.5568 19.8H2.44444V6.6H19.5556Z" fill="#666666"/>
</svg>
