<svg width="138" height="43" viewBox="0 0 138 43" fill="none" xmlns="http://www.w3.org/2000/svg">
<path d="M65.5109 21.0433C64.4051 21.0433 63.5054 21.921 63.5054 22.9999C63.5054 24.0788 64.4051 24.9566 65.5109 24.9566C66.6168 24.9566 67.5165 24.0788 67.5165 22.9999C67.5165 21.921 66.6168 21.0433 65.5109 21.0433Z" fill="#333333"/>
<path d="M66.8394 15.1123V18.6406C67.8693 18.9398 68.751 19.5773 69.3485 20.4209L72.7883 19.3305C71.6184 17.1311 69.4316 15.5262 66.8394 15.1123Z" fill="#333333"/>
<path d="M73.6112 21.7949L70.1703 22.8856C70.1713 22.9238 70.1734 22.9617 70.1734 22.9999C70.1734 24.0388 69.8138 24.9967 69.2108 25.7633L71.3353 28.616C72.799 27.1713 73.7042 25.1869 73.7042 22.9999C73.7042 22.5904 73.6724 22.188 73.6112 21.7949Z" fill="#333333"/>
<path d="M65.5109 5.93749H49.3503C48.6167 5.93749 48.022 6.51773 48.022 7.23343C48.022 7.94913 48.6167 8.52937 49.3503 8.52937H56.2551C54.7983 9.41945 53.4848 10.5126 52.3569 11.7684H43.3283C42.5947 11.7685 42 12.3488 42 13.0645C42 13.7802 42.5947 14.3605 43.3283 14.3605H50.4353C48.9027 16.8961 48.0219 19.8494 48.0219 22.9999C48.0219 26.6658 49.2134 30.0654 51.2379 32.8497H47.4689C46.7353 32.8497 46.1406 33.4299 46.1406 34.1456C46.1406 34.8613 46.7353 35.4416 47.4689 35.4416H53.5564C54.3846 36.1995 55.2883 36.8797 56.2551 37.4704H43.4653C42.7318 37.4704 42.137 38.0506 42.137 38.7663C42.137 39.482 42.7318 40.0623 43.4653 40.0623H65.5109C75.1545 40.0623 82.9999 32.408 82.9999 22.9998C82.9999 13.5916 75.1544 5.93749 65.5109 5.93749ZM71.9635 31.5046C71.939 31.5248 71.9148 31.5451 71.8884 31.5636C71.8588 31.5846 71.8285 31.6042 71.7978 31.6225C70.0229 32.8577 67.8524 33.5852 65.5109 33.5852C63.1695 33.5852 60.999 32.8577 59.2241 31.6225C59.1933 31.6042 59.1631 31.5846 59.1334 31.5636C59.1072 31.5449 59.0829 31.5246 59.0584 31.5046C56.3922 29.5741 54.6609 26.4807 54.6609 22.9999C54.6609 17.1631 59.5282 12.4145 65.5109 12.4145C71.4937 12.4145 76.361 17.1631 76.361 22.9999C76.361 26.4808 74.6298 29.5741 71.9635 31.5046Z" fill="#333333"/>
<path d="M58.2336 19.3304L61.6734 20.4208C62.271 19.5773 63.1526 18.9398 64.1825 18.6405V15.1122C61.5904 15.5262 59.4036 17.131 58.2336 19.3304Z" fill="#333333"/>
<path d="M67.0628 27.2886C66.577 27.4564 66.055 27.5486 65.5109 27.5486C64.967 27.5486 64.4449 27.4564 63.9591 27.2886L61.8342 30.1418C62.9405 30.6861 64.1896 30.9933 65.5109 30.9933C66.8323 30.9933 68.0814 30.6862 69.1877 30.1418L67.0628 27.2886Z" fill="#333333"/>
<path d="M60.8486 22.9999C60.8486 22.9617 60.8505 22.9238 60.8515 22.8856L57.4106 21.7949C57.3494 22.188 57.3176 22.5904 57.3176 22.9999C57.3176 25.187 58.2228 27.1713 59.6866 28.6161L61.8111 25.7633C61.2082 24.9967 60.8486 24.0388 60.8486 22.9999Z" fill="#333333"/>
<path d="M24 6L1 28V6H24Z" fill="#333333" stroke="#333333"/>
<path d="M95.522 16.442V35H90.572V26.954H84.02V35H79.052V16.442H84.02V23.336H90.572V16.442H95.522ZM111.426 23.534C111.426 23.018 111.354 22.526 111.21 22.058C111.078 21.59 110.862 21.176 110.562 20.816C110.262 20.456 109.884 20.174 109.428 19.97C108.972 19.754 108.426 19.646 107.79 19.646C106.602 19.646 105.672 19.982 105 20.654C104.328 21.326 103.89 22.286 103.686 23.534H111.426ZM103.614 26.486C103.77 28.226 104.262 29.498 105.09 30.302C105.93 31.106 107.022 31.508 108.366 31.508C109.05 31.508 109.638 31.43 110.13 31.274C110.634 31.106 111.072 30.926 111.444 30.734C111.828 30.53 112.17 30.35 112.47 30.194C112.782 30.026 113.088 29.942 113.388 29.942C113.772 29.942 114.072 30.086 114.288 30.374L115.728 32.174C115.2 32.786 114.618 33.296 113.982 33.704C113.346 34.1 112.686 34.418 112.002 34.658C111.318 34.886 110.628 35.042 109.932 35.126C109.236 35.222 108.564 35.27 107.916 35.27C106.62 35.27 105.408 35.06 104.28 34.64C103.164 34.208 102.186 33.578 101.346 32.75C100.518 31.91 99.8636 30.872 99.3836 29.636C98.9036 28.4 98.6636 26.966 98.6636 25.334C98.6636 24.074 98.8676 22.886 99.2756 21.77C99.6956 20.654 100.296 19.682 101.076 18.854C101.856 18.026 102.804 17.372 103.92 16.892C105.036 16.4 106.296 16.154 107.7 16.154C108.888 16.154 109.98 16.346 110.976 16.73C111.984 17.102 112.848 17.648 113.568 18.368C114.3 19.088 114.864 19.976 115.26 21.032C115.668 22.076 115.872 23.27 115.872 24.614C115.872 24.986 115.854 25.292 115.818 25.532C115.782 25.772 115.722 25.964 115.638 26.108C115.554 26.252 115.44 26.354 115.296 26.414C115.152 26.462 114.966 26.486 114.738 26.486H103.614ZM123.922 30.104C124.39 30.644 124.894 31.022 125.434 31.238C125.986 31.454 126.574 31.562 127.198 31.562C127.798 31.562 128.344 31.448 128.836 31.22C129.328 30.992 129.748 30.638 130.096 30.158C130.456 29.666 130.732 29.042 130.924 28.286C131.116 27.53 131.212 26.63 131.212 25.586C131.212 24.554 131.128 23.678 130.96 22.958C130.804 22.238 130.576 21.656 130.276 21.212C129.988 20.768 129.634 20.45 129.214 20.258C128.794 20.054 128.326 19.952 127.81 19.952C126.934 19.952 126.196 20.126 125.596 20.474C125.008 20.81 124.45 21.308 123.922 21.968V30.104ZM123.634 18.872C124.006 18.464 124.402 18.092 124.822 17.756C125.242 17.408 125.692 17.114 126.172 16.874C126.652 16.622 127.168 16.43 127.72 16.298C128.272 16.154 128.872 16.082 129.52 16.082C130.516 16.082 131.428 16.298 132.256 16.73C133.096 17.15 133.816 17.768 134.416 18.584C135.016 19.388 135.484 20.378 135.82 21.554C136.156 22.73 136.324 24.074 136.324 25.586C136.324 26.978 136.132 28.268 135.748 29.456C135.376 30.632 134.842 31.652 134.146 32.516C133.45 33.38 132.61 34.058 131.626 34.55C130.654 35.03 129.568 35.27 128.368 35.27C127.36 35.27 126.502 35.12 125.794 34.82C125.098 34.52 124.474 34.112 123.922 33.596V40.994H118.954V16.442H122.014C122.638 16.442 123.052 16.73 123.256 17.306L123.634 18.872Z" fill="#111111"/>
<path d="M26.246 35H20.81V12.968H10.172V35H4.736V8.882H26.246V35ZM47.7276 16.442V35H42.7596V24.794C42.7596 24.518 42.7716 24.206 42.7956 23.858C42.8316 23.498 42.8796 23.144 42.9396 22.796C42.6636 23.396 42.3816 23.906 42.0936 24.326C42.0696 24.35 41.9616 24.506 41.7696 24.794C41.5776 25.082 41.3256 25.454 41.0136 25.91C40.7016 26.354 40.3476 26.858 39.9516 27.422C39.5676 27.986 39.1716 28.562 38.7636 29.15C37.8156 30.518 36.7416 32.072 35.5416 33.812C35.4456 33.956 35.3316 34.1 35.1996 34.244C35.0796 34.376 34.9416 34.502 34.7856 34.622C34.6416 34.742 34.4856 34.838 34.3176 34.91C34.1496 34.982 33.9696 35.018 33.7776 35.018H30.7356V16.46H35.7036V26.666C35.7036 26.954 35.6856 27.278 35.6496 27.638C35.6136 27.998 35.5656 28.352 35.5056 28.7C35.6496 28.388 35.7936 28.1 35.9376 27.836C36.0816 27.572 36.2256 27.338 36.3696 27.134C36.3816 27.11 36.4836 26.954 36.6756 26.666C36.8796 26.378 37.1376 26.012 37.4496 25.568C37.7616 25.112 38.1096 24.602 38.4936 24.038C38.8896 23.474 39.2916 22.898 39.6996 22.31C40.6476 20.942 41.7276 19.388 42.9396 17.648C43.1196 17.36 43.3596 17.09 43.6596 16.838C43.9716 16.574 44.3196 16.442 44.7036 16.442H47.7276Z" fill="#111111"/>
</svg>
